# xmcd CD database generated by RipIT
#
# Track frame offsets:
# 150
# 12938
# 29014
# 43261
# 101492
# 132622
# 153280
# 164193
# 178952
# 218619
# 245403
#
# Disc length: 3848 seconds
#
# Revision: 0
# Processed by: cddbd v1.5.2PL0 Copyright (c) Steve Scherf et al.
# Submitted via: RipIT 3.6.0 www.suwald.com/ripit/ripit.html on 2008-03-07 at 15:25
#
DISCID=9f0f060b
DTITLE=Nina Simone - Forever Young, Gifted and Black
DYEAR=2006
DGENRE=Oldies
TTITLE0=To Be Young, Gifted and Black
TTITLE1=Backlash Blues
TTITLE2=I Wish I Knew How It Would Feel To Be Free
TTITLE3=Why? (The King Of Love Is Dead) (Live)
TTITLE4=Mississippi Goddam (Live)
TTITLE5=Revolution (Parts 1 and 2)
TTITLE6=Turn! Turn! Turn! (To Everything There Is A Season)
TTITLE7=Ain't Got No - I Got Life
TTITLE8=Westwind
TTITLE9=The Times They Are A-Changin'
TTITLE10=To Be Young, Gifted and Black (Live)
EXTD=
EXTT0=
EXTT1=
EXTT2=
EXTT3=
EXTT4=
EXTT5=
EXTT6=
EXTT7=
EXTT8=
EXTT9=
EXTT10=
PLAYORDER=
